<svg xmlns="http://www.w3.org/2000/svg" width="21.98" height="21.98" viewBox="0 0 21.98 21.98">
  <path id="comment-alt-regular_1_" data-name="comment-alt-regular (1)" d="M19.233,0H2.748A2.75,2.75,0,0,0,0,2.748V15.111a2.75,2.75,0,0,0,2.748,2.748H6.869v3.606a.514.514,0,0,0,.515.515.493.493,0,0,0,.3-.1l5.362-4.018h6.182a2.75,2.75,0,0,0,2.748-2.748V2.748A2.75,2.75,0,0,0,19.233,0Zm.687,15.111a.689.689,0,0,1-.687.687H12.364l-.55.412L8.929,18.374V15.8H2.748a.689.689,0,0,1-.687-.687V2.748a.689.689,0,0,1,.687-.687H19.233a.689.689,0,0,1,.687.687Z" fill="#ffa800"/>
</svg>
