<svg id="Group_37" data-name="Group 37" xmlns="http://www.w3.org/2000/svg" width="42" height="44" viewBox="0 0 42 44">
  <path id="Path_164" data-name="Path 164" d="M41.5,5.3,38,2,34.5,5.3,31,2,27.5,5.3,24,2,20.5,5.3,17,2,13.5,5.3,10,2V32.8H3v6.6A6.8,6.8,0,0,0,10,46H38a6.8,6.8,0,0,0,7-6.6V2ZM40.333,39.4a2.337,2.337,0,0,1-4.667,0V32.8h-21V8.6H40.333Z" transform="translate(-3 -2)" fill="#ffa800"/>
  <rect id="Rectangle_529" data-name="Rectangle 529" width="6" height="2" transform="translate(18 11.667)" fill="#ffa800"/>
  <rect id="Rectangle_530" data-name="Rectangle 530" width="2" height="2" transform="translate(32.5 11.667)" fill="#ffa800"/>
  <rect id="Rectangle_531" data-name="Rectangle 531" width="6" height="2" transform="translate(18 18.667)" fill="#ffa800"/>
  <rect id="Rectangle_532" data-name="Rectangle 532" width="2" height="2" transform="translate(32.5 18.667)" fill="#ffa800"/>
</svg>
