<svg xmlns="http://www.w3.org/2000/svg" width="14.653" height="29.307" viewBox="0 0 14.653 29.307">
  <path id="mobile-alt-solid_2_" data-name="mobile-alt-solid (2)" d="M12.455,0H2.2A2.52,2.52,0,0,0,0,2.748V26.559a2.52,2.52,0,0,0,2.2,2.748H12.455a2.52,2.52,0,0,0,2.2-2.748V2.748A2.52,2.52,0,0,0,12.455,0ZM7.327,27.475a1.678,1.678,0,0,1-1.465-1.832,1.678,1.678,0,0,1,1.465-1.832,1.678,1.678,0,0,1,1.465,1.832A1.678,1.678,0,0,1,7.327,27.475Zm5.129-6.182a.632.632,0,0,1-.55.687H2.748a.632.632,0,0,1-.55-.687V3.434a.632.632,0,0,1,.55-.687h9.158a.632.632,0,0,1,.55.687Z" fill="#2069b2"/>
</svg>
