<svg xmlns="http://www.w3.org/2000/svg" width="43.96" height="38.037" viewBox="0 0 43.96 38.037">
  <path id="motorcycle-solid" d="M35.192,76.679a6.323,6.323,0,0,0-2.912.683l-2.259-5.438H35.68c.913,0,1.648-1.06,1.648-2.377v-3.17c0-1.317-.735-2.377-1.648-2.377H32.569a1.486,1.486,0,0,0-1.222.783l-2.575,4.13-1.566-3.764A1.648,1.648,0,0,0,25.791,64H20.3c-.6,0-1.1.713-1.1,1.585V67.17c0,.872.494,1.585,1.1,1.585h4.56l1.319,3.17H15.62c-1.216-2.288-3.083-3.962-6.86-3.962H4.949c-.927,0-1.7,1.09-1.682,2.427.014,1.288.749,2.328,1.648,2.328H8.76a3.553,3.553,0,0,1,3.283,2.457L11.267,77.2a6.294,6.294,0,0,0-2.836-.515C3.809,76.926.08,82.384-.03,89.06c-.11,7.142,3.866,12.976,8.79,12.976,4.093,0,7.533-4.041,8.515-9.509h5.782c.941,0,1.689-1.129,1.648-2.486-.144-4.665,1.2-9.281,3.859-12.382l.858,2.06a15.5,15.5,0,0,0-3.077,9.727c.034,6.894,3.928,12.53,8.708,12.59,4.917.069,8.914-5.7,8.873-12.788C43.88,82.354,39.972,76.728,35.192,76.679ZM8.76,97.282c-3.028,0-5.494-3.556-5.494-7.924s2.465-7.924,5.494-7.924a3.585,3.585,0,0,1,.858.1L6.769,89c-.6,1.585.192,3.526,1.442,3.526h5.583C12.942,95.321,11.006,97.282,8.76,97.282Zm31.858-7.488c-.151,4.022-2.4,7.27-5.185,7.479-3.166.248-5.8-3.4-5.8-7.914A9.946,9.946,0,0,1,31.154,83.9l3.392,8.162c.309.753.989.991,1.511.545L37,91.794a2.03,2.03,0,0,0,.378-2.179L34.039,81.6a3.716,3.716,0,0,1,1.092-.158C38.262,81.433,40.782,85.227,40.618,89.793Z" transform="translate(0.032 -64)" fill="#1bc5bd"/>
</svg>
